<svg id="Capa_1" enable-background="new 0 0 504.5 504.5" height="512" viewBox="0 0 504.5 504.5" width="512" xmlns="http://www.w3.org/2000/svg"><g><path d="m184.75 285v196.592l-24.87 8.29c-3.93 1.31-6.053 5.557-4.744 9.487 1.31 3.93 5.559 6.054 9.487 4.744l29.998-10c3.063-1.021 5.128-3.887 5.128-7.115v-201.998z" fill="#fff0d3"/><path d="m259.75 285v196.592l24.87 8.29c3.93 1.31 6.053 5.557 4.744 9.487-1.31 3.93-5.559 6.054-9.487 4.744l-29.998-10c-3.063-1.021-5.128-3.887-5.128-7.115v-201.998z" fill="#ffd9d4"/><path d="m342.25 177.5h-120v15h120c4.136 0 7.5 3.364 7.5 7.5s-3.364 7.5-7.5 7.5h-30c-4.142 0-7.5 3.358-7.5 7.5s3.358 7.5 7.5 7.5h30c12.407 0 22.5-10.093 22.5-22.5s-10.094-22.5-22.5-22.5z" fill="#ff8d7e"/><path d="m177.245 265v109.333c0 8.284 6.716 15 15 15s15-6.716 15-15v-47.571c4.693 1.659 9.739 2.571 15 2.571s10.307-.912 15-2.571l20-61.763h-80z" fill="#ff8d7e"/><path d="m237.245 265v110c0 8.284 6.716 15 15 15s15-6.716 15-15v-110z" fill="#ff6b8a"/><path d="m492.25 225v60l-30 30v-90c0-12.43-10.07-22.5-22.5-22.5s-22.5 10.07-22.5 22.5l-15 15-15-15c0-28.99 23.51-52.5 52.5-52.5s52.5 23.51 52.5 52.5z" fill="#ccc"/><path d="m492.25 360v137h-30l-75-167z" fill="#7dd9ff"/><path d="m387.25 330h75v167h-75z" fill="#a8e5ff"/><path d="m492.25 285v75h-30l-45-37.5 45-37.5z" fill="#a8e5ff"/><path d="m462.25 285v75h-75c-41.42 0-75-33.58-75-75z" fill="#dbf4ff"/><path d="m387.25 225h30v30h-30z" fill="#b3b3b3"/><path d="m237.25 284.935h30v-45h-45z" fill="#ffd9d4"/><path d="m177.25 239.935h60v45h-60z" fill="#fff0d3"/><path d="m262.25 165h-30l20 89.934h30v-69.934c0-11.046-8.955-20-20-20z" fill="#ff8d7e"/><path d="m252.25 185c0-11.046-8.954-20-20-20h-50c-11.046 0-20 8.954-20 20v69.934h90z" fill="#ffb4a9"/><path d="m222.247 45c24.853 0 45-20.147 45-45-24.852 0-45 20.147-45 45z" fill="#ff8d7e"/><path d="m177.247 0c0 24.853 20.147 45 45 45 0-24.853-20.147-45-45-45z" fill="#ffb4a9"/><path d="m189.669 58.97-36.206 38.015c-3.847 4.037-6.213 9.498-6.213 15.515 0 12.426 10.074 22.5 22.5 22.5h52.5v-76.03z" fill="#85453d"/><path d="m291.036 96.985-36.206-38.015h-32.58v76.03h52.5c12.426 0 22.5-10.074 22.5-22.5 0-6.017-2.367-11.478-6.214-15.515z" fill="#60312c"/><path d="m222.247 55v80c24.853 0 45-20.147 45-45 0-5.261-.912-10.307-2.571-15z" fill="#ffd9d4"/><path d="m222.247 45 14.143 30h28.286c-6.178-17.476-22.837-30-42.429-30z" fill="#60312c"/><path d="m179.818 75c-1.659 4.693-2.571 9.739-2.571 15 0 24.853 20.147 45 45 45 8.284 0 15-20.147 15-45 0-5.261-.304-10.307-.857-15l-14.143-20z" fill="#fff0d3"/><path d="m222.247 45c-19.592 0-36.25 12.524-42.429 30h56.572c-2.059-17.476-7.612-30-14.143-30z" fill="#85453d"/><path d="m72.25 140v120c33.137 0 60-26.863 60-60s-26.863-60-60-60z" fill="#a8e5ff"/><path d="m102.25 200c0-33.137-13.431-60-30-60-33.137 0-60 26.863-60 60s26.863 60 60 60c16.568 0 30-26.863 30-60z" fill="#dbf4ff"/><path d="m79.75 200v-30c0-4.143-3.357-7.5-7.5-7.5s-7.5 3.357-7.5 7.5v26.893l-19.017 19.017c-2.929 2.93-2.929 7.678 0 10.607 2.93 2.928 7.678 2.928 10.607 0l21.213-21.213c1.357-1.357 2.197-3.233 2.197-5.304z" fill="#4f4f4f"/></g></svg>